<svg id="Livello_1" data-name="Livello 1" xmlns="http://www.w3.org/2000/svg" viewBox="0 0 152.57 152.57"><defs><style>.cls-1{fill:#fff;}</style></defs><path class="cls-1" d="M56.31,140.24a4.63,4.63,0,0,0-1.12,1.37,18.62,18.62,0,0,1-2.4,2.7q-2.72,2.67-5.38,5.38a9.26,9.26,0,0,1-3.2,2,12.83,12.83,0,0,1-4.19.86,10.37,10.37,0,0,1-4.14-.72,15,15,0,0,1-2.9-1.5,17.68,17.68,0,0,1-2.5-2.17c-.76-.72-1.46-1.49-2.18-2.24l-2.43-2.52c-.43.34-.84.63-1.21,1-.87.81-1.72,1.67-2.6,2.48a8.58,8.58,0,0,1-2.44,1.53,11.38,11.38,0,0,1-3.67,1,10.6,10.6,0,0,1-1.67.16,12.18,12.18,0,0,1-4.46-1.09A13.06,13.06,0,0,1,6,145.59a11.07,11.07,0,0,1-2.36-3.8,12.4,12.4,0,0,1-.67-4.57,11.24,11.24,0,0,1,.64-3.7,11.56,11.56,0,0,1,1.57-2.91c1.09-1.46,2.48-2.62,3.73-4-.88-.88-1.76-1.77-2.65-2.65s-1.93-1.87-2.84-2.85a14.14,14.14,0,0,1-2.56-3.91,4.68,4.68,0,0,1-.25-.83,20.57,20.57,0,0,1-.51-2.48,21.37,21.37,0,0,1,.1-3.49,6.87,6.87,0,0,1,.32-1.22,8.64,8.64,0,0,1,1.41-3.06,23,23,0,0,1,2.53-2.88c1.47-1.51,3-3,4.48-4.46a12.77,12.77,0,0,1,3.35-2.49c-.62-.64-1.24-1.26-1.83-1.9a40.92,40.92,0,0,1-2.74-3.15A10.11,10.11,0,0,1,6.28,88.6a11.88,11.88,0,0,1-.74-5.07,11,11,0,0,1,1.12-4,17.78,17.78,0,0,1,3.83-4.79c1-.93,1.93-1.92,2.88-2.9a19.38,19.38,0,0,1,3.1-2.77,8.44,8.44,0,0,1,2.66-1.34,5.66,5.66,0,0,0,.74-.29,11.66,11.66,0,0,1,3-.48,9.56,9.56,0,0,1,3.13.37,11.08,11.08,0,0,1,3.57,1.61,15.92,15.92,0,0,1,2.36,2c1,.94,1.92,1.93,2.87,2.9L36.94,76c1.31,1.3,2.63,2.59,3.92,3.9s2.48,2.58,3.73,3.85c1.09,1.11,2.2,2.2,3.31,3.29.27.27.42.26.72,0,1.93-1.92,3.88-3.83,5.81-5.76,1.79-1.78,3.56-3.58,5.35-5.37l5.47-5.48,5.54-5.55c1.52-1.52,3.06-3,4.58-4.57l4.7-4.69,5.43-5.43c.54-.54,1.07-1.09,1.66-1.7l-1.55-1.59Q83.33,44.5,81,42.18c-1-1-2-2-3-3-1.51-1.53-3-3.08-4.53-4.61Q72,33,70.4,31.47a10.33,10.33,0,0,1-2.47-3.55,9.69,9.69,0,0,1-.86-3.34c0-.24-.12-.48-.13-.72a11.81,11.81,0,0,1,0-1.19c0-.27.12-.53.13-.79a10.34,10.34,0,0,1,1.55-4.51,18.73,18.73,0,0,1,3.31-4c1.55-1.58,3.14-3.13,4.72-4.69a9.83,9.83,0,0,1,3.5-2.25c.42-.16.88-.21,1.3-.36,1.66-.57,3.36-.3,5-.28a3.3,3.3,0,0,1,.88.27l1.35.4A11.14,11.14,0,0,1,93,9.34c.94.94,1.91,1.85,2.88,2.77a3.66,3.66,0,0,0,.42.28c.1-.15.21-.29.29-.44a14.4,14.4,0,0,1,2.72-3.49c1.51-1.53,3-3.05,4.58-4.55a13.38,13.38,0,0,1,4.39-3,7.06,7.06,0,0,1,2.64-.68,2,2,0,0,0,.74-.08,5.38,5.38,0,0,1,2.46,0,10,10,0,0,1,2.6.61,12.46,12.46,0,0,1,3.22,1.86c1.83,1.51,3.41,3.27,5.1,4.92.4.39.8.77,1.19,1.17.24.24.4.25.66,0,.61-.63,1.28-1.22,1.91-1.85a13.35,13.35,0,0,1,4.41-3.11A7.49,7.49,0,0,1,136.1,3a11.35,11.35,0,0,0,1.27-.17,10.68,10.68,0,0,1,4,.56,12.65,12.65,0,0,1,2.51,1.22A11.75,11.75,0,0,1,146.64,7a10.07,10.07,0,0,1,1.73,2.63,10.37,10.37,0,0,1,.81,2.39,12.68,12.68,0,0,1,.23,3.89A13.45,13.45,0,0,1,148.28,20a15,15,0,0,1-2.85,3.72c-.59.6-1.2,1.19-1.79,1.8a2.37,2.37,0,0,0-.27.42c1.44,1.41,2.9,2.8,4.32,4.24a32.81,32.81,0,0,1,2.67,3,10.24,10.24,0,0,1,1.49,2.86,13.31,13.31,0,0,1,.72,4,11.52,11.52,0,0,1-.45,2.9,12.86,12.86,0,0,1-1.46,3.3,5.59,5.59,0,0,1-.84,1.11c-1.18,1.24-2.37,2.46-3.56,3.69-1,1-2,2.05-3,3.09a8.47,8.47,0,0,1-3,2.11,1.76,1.76,0,0,0,.54.72c.91.92,1.85,1.81,2.74,2.75A10.9,10.9,0,0,1,146,63.44a12.64,12.64,0,0,1,.77,5.35,9.42,9.42,0,0,1-.35,2.31A15,15,0,0,1,145.19,74a14.68,14.68,0,0,1-2.79,3.35c-.72.63-1.37,1.34-2.05,2-1.24,1.22-2.46,2.44-3.72,3.64a7.61,7.61,0,0,1-3.45,1.86,9.46,9.46,0,0,0-.91.26,11.52,11.52,0,0,1-8.33-.94,17.46,17.46,0,0,1-4.47-3.64L111.91,73l-6.76-6.75c-.33-.34-.67-.67-1.06-1L65.16,104.1c.63.66,1.18,1.26,1.75,1.84,1,1,2,1.94,3,2.91l3.92,3.91,4,4c1.45,1.47,2.92,2.92,4.35,4.41a13.16,13.16,0,0,1,2.46,3.72,11.65,11.65,0,0,1,.71,6.46,10.12,10.12,0,0,1-1.43,3.83,17.39,17.39,0,0,1-2.79,3.42c-1.63,1.63-3.28,3.25-4.93,4.87a13.6,13.6,0,0,1-3.54,2.41,10.27,10.27,0,0,1-5.29.94l-.67,0a9.38,9.38,0,0,1-3.72-1A16.81,16.81,0,0,1,58.11,142C57.53,141.42,56.94,140.85,56.31,140.24Zm73-62.85a13.45,13.45,0,0,0,1.56-.31,6.26,6.26,0,0,0,2.29-1.82c1-1,2-2.06,3-3.09.57-.59,1.16-1.17,1.73-1.77a3.76,3.76,0,0,0,1-1.88,3.67,3.67,0,0,0-1-3.27c-1.67-1.73-3.39-3.41-5.1-5.11l-4.36-4.33c-1.94-1.94-3.87-3.89-5.8-5.83l-4.35-4.33c-1.89-1.9-3.77-3.8-5.66-5.69-1.48-1.48-3-2.94-4.46-4.42l-7.22-7.24c-2.08-2.07-4.18-4.13-6.26-6.22q-3.59-3.58-7.14-7.21a4.28,4.28,0,0,0-2.15-1.39,4.66,4.66,0,0,0-1.86,0A5.56,5.56,0,0,0,81,15.14l-2.22,2.18c-.92.9-1.86,1.79-2.76,2.72a4.35,4.35,0,0,0-.93,1.44,4.71,4.71,0,0,0-.21,1.66A3.58,3.58,0,0,0,76.09,26c1.56,1.58,3.14,3.14,4.71,4.71,2.33,2.33,4.64,4.69,7,7,1.82,1.78,3.59,3.62,5.46,5.36,2.47,2.29,4.77,4.77,7.15,7.17L110,59.83l4.57,4.57c1.88,1.88,3.78,3.74,5.67,5.63s3.75,3.78,5.62,5.68A4.47,4.47,0,0,0,129.34,77.39ZM67.88,138.91a3.41,3.41,0,0,0,2.63-1c.68-.62,1.31-1.29,2-1.94,1-1,2-2,3-3a6.26,6.26,0,0,0,1.88-2.51,3.6,3.6,0,0,0-.25-2.64,6.06,6.06,0,0,0-1.34-1.59c-2.23-2.26-4.47-4.49-6.71-6.73s-4.59-4.55-6.88-6.84-4.4-4.43-6.61-6.64l-6.82-6.81L42,92.49,35.1,85.6l-4.86-4.88c-1.49-1.49-3-3-4.47-4.48a3.88,3.88,0,0,0-2-1.12,3.15,3.15,0,0,0-3.05.81c-2.05,2-4,4.07-6.05,6.06a3.56,3.56,0,0,0-1.19,2.51,3.52,3.52,0,0,0,.82,2.66c.37.39.76.76,1.14,1.13l2.85,2.83,3.93,3.94L26,98.79l3,3,2.91,2.87c1.29,1.29,2.57,2.6,3.87,3.89.94,1,1.9,1.88,2.85,2.83l3.92,3.93,2.85,2.84L49.23,122,53,125.82l3,3,3,3,2.9,2.87c1,1,2,1.89,2.9,2.89A3.9,3.9,0,0,0,67.88,138.91Zm67-89.75a3.53,3.53,0,0,0,3-1.24c1.25-1.26,2.52-2.5,3.76-3.78a18.39,18.39,0,0,0,2.09-2.23A3.43,3.43,0,0,0,144,38.2a5,5,0,0,0-1.15-1.5c-.41-.36-.8-.76-1.18-1.15-1.27-1.27-2.52-2.56-3.79-3.84l-2.85-2.83c-.76-.76-1.51-1.54-2.27-2.31-1-1-1.94-2-2.92-3l-3-2.92L124,17.82c-1-1-2-2.1-3.06-3.13s-1.88-1.89-2.83-2.82a40.38,40.38,0,0,0-3.39-3.28,3.55,3.55,0,0,0-3.82-.36,11.41,11.41,0,0,0-2.21,1.95c-.73.7-1.44,1.42-2.15,2.13-.92.92-1.85,1.83-2.75,2.77a2.69,2.69,0,0,0-.65.9,3.61,3.61,0,0,0,.91,4.15c.91.86,1.81,1.73,2.69,2.62,2.38,2.41,4.74,4.84,7.12,7.24,1.86,1.88,3.74,3.74,5.6,5.61,1.5,1.5,3,3,4.49,4.53,2.59,2.59,5.19,5.16,7.77,7.76A3.88,3.88,0,0,0,134.9,49.16ZM49.42,135a3.25,3.25,0,0,0-1-2.57c-.6-.65-1.26-1.23-1.89-1.86l-6.73-6.78-4.88-4.91-5.55-5.57q-2-2-4-4c-1-1-2-2-3-3-.81-.8-1.62-1.61-2.45-2.38a3.59,3.59,0,0,0-2.64-1,7.19,7.19,0,0,0-.88.24,2.69,2.69,0,0,0-1.41.77q-1.62,1.57-3.25,3.14c-.47.45-1,.86-1.42,1.32a21.44,21.44,0,0,0-1.88,2.06,3,3,0,0,0-.67,2.4,4.16,4.16,0,0,0,1,2.11l1,1c1.37,1.41,2.73,2.82,4.12,4.19.52.51,1.15.9,1.67,1.41,2.16,2.14,4.3,4.31,6.45,6.46,2.65,2.66,5.29,5.33,8,8,.77.75,1.36,1.63,2.09,2.39l1.79,1.79c1.09,1.07,2.19,2.14,3.26,3.23a4.62,4.62,0,0,0,2.5,1.06,3.4,3.4,0,0,0,1.5-.19,4.17,4.17,0,0,0,1.84-1.08c.36-.33.68-.7,1-1.05,1.47-1.52,2.92-3.06,4.42-4.56A3.19,3.19,0,0,0,49.42,135Zm10-36.6a1.28,1.28,0,0,0,.26-.1Q79,79,98.25,59.69c.06,0,.07-.16.11-.29a1.67,1.67,0,0,1-.26-.17c-1.54-1.57-3.07-3.14-4.62-4.7a5.39,5.39,0,0,0-.66-.49l-1.23,1.22-4,4-2.83,2.83-3.07,3c-1,1-1.94,2-2.92,2.92s-1.93,1.89-2.89,2.85c-1.27,1.28-2.52,2.57-3.8,3.84s-2.53,2.5-3.78,3.76l-3.77,3.79c-1.82,1.81-3.66,3.61-5.48,5.43-1.59,1.59-3.16,3.2-4.75,4.79-.37.38-.37.47,0,.84,1,1,1.93,2,2.91,3C58,97,58.67,97.68,59.39,98.38Zm78.45-78.2c.88-.86,1.67-1.66,2.48-2.42a4.14,4.14,0,0,0,1.44-2.55,3.6,3.6,0,0,0-.23-2A3.79,3.79,0,0,0,138,10.77,4.05,4.05,0,0,0,134.86,12c-.72.73-1.46,1.42-2.18,2.15a2.29,2.29,0,0,0-.29.42C134.24,16.47,136,18.3,137.84,20.18Zm-123.17,112a2.07,2.07,0,0,0-.45.24c-1,1-1.93,1.91-2.83,2.93a3.45,3.45,0,0,0-.34,4.17,3.75,3.75,0,0,0,3.75,1.93,3.2,3.2,0,0,0,1.9-.53c.43-.35.9-.64,1.29-1,.7-.65,1.35-1.35,2.09-2.09Z"/></svg>