<svg id="Livello_1" data-name="Livello 1" xmlns="http://www.w3.org/2000/svg" fill="#a00644" viewBox="0 0 908.5 766.51"><path d="M881,118.76v26.81H27.48V118.76c0-19.06,17-34.5,38-34.5H843.07C864,84.26,881,99.7,881,118.76Z"/><path d="M853.56,34.5V61.32H55V34.5c0-19,17-34.5,38-34.5H815.6C836.56,0,853.56,15.45,853.56,34.5Z"/><path d="M874,168.51H34.5A34.5,34.5,0,0,0,0,203V732a34.5,34.5,0,0,0,34.5,34.5H874A34.49,34.49,0,0,0,908.5,732V203A34.5,34.5,0,0,0,874,168.51ZM395.41,690.63H243.75a13,13,0,0,1-11.67-18.89S436.24,262,441.38,251.85c4.61-9.23,16.36-9.4,22.28.09,106.48,168.37,7.4,303.49-56.58,431.38A13,13,0,0,1,395.41,690.63Zm268-.08H511a12.57,12.57,0,0,1-11.66-7.32c-33-67.73-13.15-170.9,44.57-232.53h0c6.71-7.14,17.15-6.71,21.59,2.43L675.05,671.65A13.09,13.09,0,0,1,663.38,690.55Z"/></svg>