<svg id="Livello_1" data-name="Livello 1" xmlns="http://www.w3.org/2000/svg" viewBox="0 0 262.35 42.39"><defs><style>.cls-1{fill:#fff941;}</style></defs><path class="cls-1" d="M218.79,8.13c-2.46,0-4.47,1.17-6.27,3-8.47,8.49-17,16.93-25.47,25.44-3.79,3.81-8.22,5.77-13.64,5.29-4.34-.39-7.75-2.57-10.74-5.57q-12.49-12.56-25-25.09c-2.59-2.61-5.59-3.88-9.15-2.53a12.07,12.07,0,0,0-3.94,2.74Q111.9,23.92,99.35,36.56c-4.95,5-10.8,6.79-17.43,4.29A21.18,21.18,0,0,1,75,36.17c-8.46-8.24-16.74-16.66-25.1-25-3.07-3.06-6.42-3.88-9.85-2.23a12.48,12.48,0,0,0-3.24,2.48C27.09,21.09,17.39,30.84,7.59,40.49a6.17,6.17,0,0,1-3.68,1.73A4.79,4.79,0,0,1,.7,40.53a3.27,3.27,0,0,1,0-4,10.68,10.68,0,0,1,1.45-1.7Q16.69,20.18,31.26,5.58c5-4.95,10.82-7,17.56-4.5A21.41,21.41,0,0,1,55.88,5.8Q68.39,18,80.53,30.48c4,4.18,9.42,4.41,13.69,0C102.31,22,110.69,13.85,119,5.62c2.7-2.68,5.71-4.77,9.64-5.35,5.88-.86,10.66,1.17,14.73,5.24,8.4,8.39,16.76,16.83,25.15,25.23,3.23,3.24,6.79,4,10.16,2.2a13.46,13.46,0,0,0,2.92-2.3q12.49-12.43,24.94-24.91C209.31,3,212.4.79,216.49.25a16,16,0,0,1,14,4.74c10.15,10.08,20.22,20.26,30.29,30.42,2,2,2.07,4.16.32,6-1.49,1.53-4.17,1.35-6-.49q-14.82-14.74-29.61-29.52C223.64,9.52,221.64,8.14,218.79,8.13Z"/></svg>