<svg id="Livello_1" data-name="Livello 1" xmlns="http://www.w3.org/2000/svg" viewBox="0 0 113.96 161.52"><defs><style>.cls-1{fill:#fff;}</style></defs><path class="cls-1" d="M100.57,65.13h.89c1.21,0,2.43,0,3.64,0a9.15,9.15,0,0,1,6.8,3.38,7.83,7.83,0,0,1,1.4,2.34,15.48,15.48,0,0,1,.62,2.89,4.8,4.8,0,0,1,0,.93c0,3.93,0,7.86,0,11.78A9.06,9.06,0,0,1,110.39,94a10.23,10.23,0,0,1-3.6,1.72,12,12,0,0,1-2.48.18c-1,0-2,0-2.92,0-.74,0-.82.09-.82.83v20.56c0,.6,0,1.19,0,1.78a12.44,12.44,0,0,1-4.17,8.43A13.6,13.6,0,0,1,94.12,129a7.28,7.28,0,0,1-2,.87c-.7.17-.83.65-1,1.16-.29,1.12-.56,2.25-.83,3.37s-.49,2.12-.75,3.17c-.15.6-.34,1.18-.5,1.77-.12.43-.22.87-.32,1.3s-.22,1.16-.34,1.74-.21.86-.32,1.29c-.35,1.34-.71,2.68-1,4-.15.57-.24,1.16-.38,1.74-.23.94-.44,1.89-.73,2.81a13.28,13.28,0,0,1-1.07,2.83,12.73,12.73,0,0,1-2.42,3.15,15.24,15.24,0,0,1-4.23,2.59,3.4,3.4,0,0,1-.88.25,11.76,11.76,0,0,1-2.28.43c-1.12,0-2.24,0-3.36,0H27.9l-1.85,0a11.44,11.44,0,0,1-4.55-1.1,12.07,12.07,0,0,1-3.77-2.55,12.52,12.52,0,0,1-1.87-2.61,14.51,14.51,0,0,1-1.5-4.37c-.22-1-.54-2-.79-2.94s-.47-2-.72-3c-.15-.57-.34-1.12-.5-1.69s-.22-.86-.32-1.29c-.42-1.75-.81-3.5-1.25-5.23-.35-1.4-.77-2.78-1.14-4.17-.14-.52-.25-1-.34-1.59a1.27,1.27,0,0,0-.92-1.11,11.88,11.88,0,0,1-5.18-3.48A13.23,13.23,0,0,1,1.45,124,11,11,0,0,1,.37,121.1,19.6,19.6,0,0,1,0,116.78q0-36.51,0-73a21.24,21.24,0,0,1,.14-3,11.41,11.41,0,0,1,1-3.17,13.46,13.46,0,0,1,2.71-3.89A9.66,9.66,0,0,1,7,31.51c.58-.24,1.17-.46,1.77-.68a1.09,1.09,0,0,0,.84-1A11.93,11.93,0,0,1,10,28.17c.37-1.4.75-2.79,1.1-4.18.24-1,.42-2,.67-3,.34-1.34.72-2.67,1.06-4,.14-.57.23-1.16.36-1.73s.26-1,.39-1.51c.17-.69.3-1.38.5-2.06A23.29,23.29,0,0,1,15.88,6.3a13,13,0,0,1,2.18-2.74,13.35,13.35,0,0,1,3.34-2.3A11.09,11.09,0,0,1,25.32.16,34,34,0,0,1,28.81,0Q51,0,73.14,0a17.7,17.7,0,0,1,3.33.3A11.74,11.74,0,0,1,80.41,2,12.46,12.46,0,0,1,83,4a11.49,11.49,0,0,1,2.16,3.17,22,22,0,0,1,1.2,4c.22,1,.53,2,.78,3s.48,2.07.73,3.1c.15.59.34,1.17.5,1.76.12.43.23.86.32,1.3.13.6.22,1.2.35,1.8.09.42.21.82.32,1.23.28,1,.58,2.05.83,3.08s.43,1.9.64,2.84c.11.46.21.92.36,1.36a.74.74,0,0,0,.41.34c.72.29,1.46.52,2.15.85a12.09,12.09,0,0,1,4.87,4.32,11.56,11.56,0,0,1,2,6.51c0,.35,0,.71,0,1.07V65.13ZM50.36,38.62H12.45a4.06,4.06,0,0,0-2.87,1.31,4.43,4.43,0,0,0-1.2,3.35q0,37.2,0,74.4a5.05,5.05,0,0,0,1.19,3.37,3.22,3.22,0,0,0,1.88,1.17,12.28,12.28,0,0,0,2.27.19H86.88c.24,0,.48,0,.71,0a5.05,5.05,0,0,0,2.57-.69A4,4,0,0,0,92,119.15a12.23,12.23,0,0,0,.19-1.9q0-36.63,0-73.26a11.62,11.62,0,0,0-.2-2.12,4,4,0,0,0-2.59-3,4.66,4.66,0,0,0-2-.26Zm.07,92.08h-31c-.27,0-.53,0-.79,0-.42,0-.51.12-.44.54.11.67.26,1.34.42,2s.37,1.42.54,2.13c.24,1,.46,1.93.69,2.89.14.59.31,1.18.46,1.78s.24,1.19.39,1.79.33,1.17.48,1.76.28,1.29.44,1.93c.27,1.17.55,2.35.85,3.52a8.15,8.15,0,0,0,.87,2.37,3.74,3.74,0,0,0,2.42,1.74,12.92,12.92,0,0,0,2.49.15H72.46c.24,0,.48,0,.71,0a6.73,6.73,0,0,0,2-.2A4.75,4.75,0,0,0,78,150.05c.14-.45.22-.92.33-1.38.19-.73.39-1.46.57-2.2.23-.93.43-1.88.67-2.82s.53-2,.77-3c.14-.57.22-1.16.35-1.74.28-1.19.58-2.38.87-3.57l.36-1.44c.18-.71.38-1.42.54-2.13a7.63,7.63,0,0,0,.09-.95,7.39,7.39,0,0,0-1-.13ZM82.4,30c-.28-1.08-.56-2.08-.8-3.09-.33-1.4-.64-2.8-1-4.2-.1-.44-.22-.87-.33-1.3-.16-.64-.34-1.27-.49-1.91s-.22-1.11-.36-1.65c-.38-1.44-.78-2.88-1.15-4.31-.22-.83-.36-1.67-.63-2.48a3.83,3.83,0,0,0-2.52-2.45,7.44,7.44,0,0,0-2.31-.29H27.67a5.08,5.08,0,0,0-.78,0,6,6,0,0,0-1.66.33,4.68,4.68,0,0,0-2.56,3.19c-.25,1-.49,2-.73,2.95-.12.46-.23.92-.35,1.38-.23.91-.48,1.82-.7,2.73s-.43,2-.67,2.95c-.13.55-.31,1.09-.45,1.64s-.25,1-.37,1.5-.23,1.17-.37,1.74c-.25,1-.53,2-.79,2.94-.09.33,0,.49.38.53s.47,0,.71,0H81.14a4.56,4.56,0,0,0,.64,0A4.37,4.37,0,0,0,82.4,30Zm18.17,43.5V85c0,.66,0,1.33,0,2,0,.48.06.57.52.57,1.16,0,2.33,0,3.49,0,.8,0,1.09-.38,1.09-1.17V74.63a1.12,1.12,0,0,0-1.24-1.22h-3.28C101,73.41,100.84,73.44,100.57,73.47Z"/><path class="cls-1" d="M84.75,76.4a71,71,0,0,1-.06,8.29c-1-.17-2-.32-3-.5a8.38,8.38,0,0,1-1.17-.3,13.74,13.74,0,0,1-5-3,12.9,12.9,0,0,1-3.34-4.8,10,10,0,0,1-.71-2.58,18.61,18.61,0,0,0-.66-2.62,2.19,2.19,0,0,0-.22-.43l-.19.12c-.11.32-.23.64-.32,1-.15.52-.27,1.05-.4,1.57l-.33,1.3c-.27,1.15-.56,2.3-.82,3.45s-.45,2-.68,3c-.16.71-.34,1.42-.5,2.13-.12.5-.21,1-.31,1.52s-.24,1.29-.38,1.93-.29,1.14-.43,1.71c-.24.92-.46,1.83-.71,2.74s-.48,1.68-.75,2.51-.67,1.95-1.05,2.91a7.66,7.66,0,0,1-4,4.44,6.6,6.6,0,0,1-3.88.44,6.67,6.67,0,0,1-4.87-3.53,23.48,23.48,0,0,1-1.78-4.68c-.32-1.1-.58-2.23-.93-3.32a18.23,18.23,0,0,1-.57-2.17c-.17-.92-.45-1.83-.68-2.74-.13-.55-.27-1.1-.39-1.66-.25-1.2-.48-2.41-.74-3.61-.15-.7-.34-1.38-.49-2.07-.12-.51-.21-1-.31-1.53s-.2-1.26-.35-1.87c-.23-.91-.51-1.8-.76-2.7-.08-.27-.13-.54-.21-.86a.71.71,0,0,0-.49.58c-.24,1-.45,1.93-.69,2.89-.14.6-.33,1.18-.47,1.77s-.26,1.29-.4,1.93-.33,1.38-.47,2.07-.26,1.34-.4,2-.29,1.43-.44,2.15c-.26,1.18-.51,2.36-.79,3.53-.15.62-.34,1.23-.5,1.85-.12.43-.23.86-.34,1.29-.23.83-.42,1.68-.68,2.5-.33,1-.71,2-1.08,3.06a7.61,7.61,0,0,1-4.5,4.8,6.55,6.55,0,0,1-4.11.16,6.18,6.18,0,0,1-1.76-.63,7.21,7.21,0,0,1-2.17-2.16,11.18,11.18,0,0,1-1.17-2.47c-.51-1.49-1.11-2.93-1.62-4.42-.31-.88-.54-1.8-.77-2.71A4.89,4.89,0,0,0,17.51,85a9.79,9.79,0,0,0-1.45-.29c-.23,0-.46,0-.74-.07V76.38a10.26,10.26,0,0,1,3.18.29c.69.29,1.46.4,2.17.65A12.73,12.73,0,0,1,27,82.41a10.39,10.39,0,0,1,1.34,2.76c.32,1,.64,2.07.88,3.13.15.69.41,1.34.67,2.17a13,13,0,0,0,.48-1.24c.22-.77.41-1.55.59-2.33s.29-1.33.44-2,.31-1.48.48-2.22.31-1.19.44-1.79c.18-.76.33-1.52.51-2.29s.33-1.37.49-2,.23-1.16.36-1.73.34-1.41.51-2.12c.11-.43.21-.87.32-1.3.31-1.19.56-2.39,1-3.55a18.93,18.93,0,0,1,2.36-5.53A7,7,0,0,1,41,59.85a6.73,6.73,0,0,1,3.58-.31,7,7,0,0,1,5.14,3.81,22.18,22.18,0,0,1,1.57,4.08c.33,1.2.74,2.38,1.07,3.58.26,1,.43,2,.66,2.95s.5,2.06.73,3.1c.12.5.21,1,.32,1.53.25,1.25.49,2.51.76,3.75.15.67.35,1.33.51,2,.12.46.22.92.32,1.38s.21,1.16.34,1.73c.19.8.39,1.6.61,2.39a.42.42,0,0,0,.28.24.41.41,0,0,0,.28-.25c.22-.87.42-1.75.64-2.62.16-.66.34-1.32.51-2,.11-.45.22-.91.31-1.37.13-.65.25-1.29.38-1.94s.32-1.38.47-2.07.26-1.19.38-1.8c.21-1.11.41-2.23.63-3.35.11-.5.27-1,.41-1.5.25-.91.51-1.82.75-2.73s.35-1.71.64-2.52a19.72,19.72,0,0,1,2.36-5.55,6.71,6.71,0,0,1,3.82-2.65,7.62,7.62,0,0,1,2.59-.23,6.31,6.31,0,0,1,4.42,2.17,11.64,11.64,0,0,1,1.89,3.52c.47,1.27.93,2.54,1.35,3.82.3.92.56,1.86.8,2.79A6,6,0,0,0,82.2,75.7a8.45,8.45,0,0,0,2.09.63A4.52,4.52,0,0,0,84.75,76.4Z"/><path class="cls-1" d="M54.19,19.6A4,4,0,0,1,50,23.73a4.12,4.12,0,0,1,0-8.23A4,4,0,0,1,54.19,19.6Z"/></svg>