<svg id="Livello_1" data-name="Livello 1" xmlns="http://www.w3.org/2000/svg" viewBox="0 0 129.61 132.85"><defs><style>.cls-1{fill:#fff;}</style></defs><path class="cls-1" d="M18.3,95.07a7.38,7.38,0,0,0,0,.74c0,1.74,0,3.49.08,5.22.05,1.17.25,2.33.39,3.49.11.88.22,1.76.35,2.64.1.66.24,1.31.37,2s.26,1.34.4,2c.09.39.18.78.28,1.17.33,1.22.62,2.44,1,3.64.47,1.5,1,3,1.53,4.44a77,77,0,0,0,3.2,7.41c.31.58.53,1.2.81,1.85l-6.47,3.21c-.29-.59-.57-1.16-.84-1.73-.66-1.45-1.33-2.89-2-4.35-.38-.88-.71-1.78-1.06-2.68-.42-1.1-.85-2.2-1.24-3.31-.22-.6-.38-1.22-.57-1.83s-.45-1.41-.65-2.12-.39-1.43-.58-2.15-.3-1.21-.44-1.82c-.11-.45-.21-.9-.29-1.36-.12-.69-.23-1.39-.34-2.08s-.27-1.59-.41-2.38a1.13,1.13,0,0,1,0-.18c-.1-1-.16-2-.31-3-.28-1.77-.22-3.55-.36-5.32a30.17,30.17,0,0,1,0-5c0-.38,0-.77.07-1.15.1-1.27.18-2.54.31-3.8s.28-2.32.49-3.46c.27-1.53.61-3,.93-4.55.19-.85.37-1.7.58-2.53.18-.68.39-1.35.59-2s.43-1.33.65-2c.28-.83.57-1.66.86-2.48.4-1.12.8-2.23,1.21-3.34s.75-1.93,1.12-2.89C18.5,63.88,19,62.45,19.58,61c.46-1.18,1-2.36,1.41-3.55s.94-2.51,1.4-3.76c.4-1,.81-2.09,1.17-3.15s.58-1.87.84-2.81c.32-1.16.63-2.33.92-3.5.14-.59.22-1.19.32-1.79.16-1,.31-2,.47-3,0,0,0-.08,0-.12a64.88,64.88,0,0,0,.23-8.48c-.05-1.23-.12-2.46-.23-3.69s-.28-2.32-.42-3.48c-.11-.86-.19-1.72-.31-2.58-.09-.64-.22-1.27-.35-1.91s-.26-1.3-.41-2-.31-1.28-.46-1.93c-.1-.41-.18-.82-.28-1.23-.27-1.06-.49-2.14-.82-3.19-.46-1.47-1-2.93-1.51-4.38-.35-.93-.78-1.83-1.15-2.75a4.34,4.34,0,0,1-.15-.8L26.33.05c.06,0,.15,0,.28,0,.71,1.82,1.4,3.65,2.13,5.47A33.85,33.85,0,0,1,30,9.21c.39,1.41.81,2.81,1.17,4.23.24.93.41,1.89.61,2.83.23,1.1.46,2.2.67,3.31.11.55.18,1.11.25,1.67.11.86.22,1.72.31,2.58.15,1.4.28,2.8.42,4.21,0,.16,0,.32,0,.48.11,2.87.15,5.75,0,8.62,0,1.36-.27,2.72-.43,4.08-.09.72-.2,1.43-.33,2.15s-.27,1.21-.4,1.82-.19,1-.31,1.53c-.19.78-.4,1.55-.61,2.33S31,50.6,30.7,51.36q-.57,1.78-1.2,3.57c-.33,1-.68,1.92-1.05,2.87C28,59,27.51,60.13,27,61.3c-.55,1.35-1.08,2.7-1.63,4-.47,1.13-.95,2.25-1.41,3.38-.3.76-.59,1.52-.86,2.29-.42,1.17-.82,2.35-1.21,3.53a4.27,4.27,0,0,0-.13.66c.07.07.1.12.13.12l2.33.33,2.92.43.12,0c1,.1,2.08.18,3.12.29,1.2.13,2.4.28,3.6.42l.24,0c.88.08,1.77.18,2.65.25l4.78.31,6.36.41h.12c2.63.13,5.26.27,7.89.36,2.18.07,4.37.11,6.55.13,1.88,0,3.77,0,5.65,0,2.26,0,4.53,0,6.8-.1,1,0,1.94-.12,2.9-.18,2.25-.12,4.49-.23,6.73-.37,2-.12,4-.28,5.93-.42l.25,0,4.47-.32A19.37,19.37,0,0,0,98,76.58c.74-.15,1.48-.13,2.22-.22.92-.11,1.83-.26,2.74-.4l.12,0c1-.1,1.93-.19,2.88-.31.64-.08,1.27-.21,2-.32a3.26,3.26,0,0,0-.07-.7c-.41-1.22-.81-2.44-1.25-3.64s-.93-2.33-1.4-3.5c-.54-1.35-1.09-2.71-1.64-4.06-.45-1.11-.91-2.21-1.35-3.32-.57-1.43-1.13-2.87-1.68-4.3-.32-.82-.62-1.64-.91-2.47-.21-.6-.38-1.22-.56-1.83-.23-.77-.45-1.54-.65-2.31-.32-1.25-.64-2.5-.94-3.75-.24-1-.46-2.11-.67-3.18-.11-.55-.19-1.11-.25-1.67-.12-1.18-.27-2.37-.3-3.56-.09-2.83-.09-5.66,0-8.49.06-1.24.25-2.48.38-3.72l0-.24c.1-1.05.18-2.09.32-3.13.1-.78.28-1.54.42-2.31.11-.62.19-1.24.3-1.85s.19-1,.31-1.55c.25-1.1.48-2.2.77-3.29.35-1.31.77-2.6,1.14-3.9A47.9,47.9,0,0,1,102,2.91c.4-.94.73-1.89,1.12-2.91a4.54,4.54,0,0,1,.62.19l5.38,2.62c.07,0,.15,0,.3.11a3.52,3.52,0,0,1-.13.8c-.52,1.31-1.11,2.6-1.6,3.92S107,10,106.6,11.21s-.64,2.23-.94,3.35c-.13.5-.2,1-.31,1.53s-.27,1.09-.39,1.63-.22,1.07-.32,1.6-.17,1-.25,1.49-.15,1-.21,1.44c-.13,1-.27,2.08-.36,3.13-.16,1.73-.3,3.46-.43,5.19,0,.73,0,1.46-.06,2.19,0,.36,0,.72,0,1.09a55.13,55.13,0,0,0,.53,7.25c.07.71.28,1.42.42,2.13s.2,1.15.32,1.72.3,1.12.45,1.68c.1.39.19.78.29,1.17.19.74.37,1.48.6,2.2s.59,1.74.91,2.6.73,2,1.12,3,.78,1.92,1.16,2.87.78,1.94,1.15,2.91.78,2,1.17,3.08.91,2.34,1.35,3.52.8,2.22,1.2,3.33.78,2,1.14,3.08.57,1.84.84,2.76c.22.76.43,1.51.63,2.27.15.58.28,1.17.42,1.75.08.33.17.66.24,1,.15.69.29,1.38.43,2.07s.2,1.14.29,1.72.15.95.21,1.43c.11,1.07.18,2.13.33,3.19a38.84,38.84,0,0,1,.25,5.39c0,1.43,0,2.87,0,4.31,0,1.19-.16,2.38-.28,3.56s-.28,2.65-.48,4-.43,2.45-.67,3.67-.5,2.69-.82,4c-.26,1.09-.63,2.15-1,3.23-.19.65-.37,1.31-.57,2s-.36,1.1-.56,1.64c-.39,1.07-.79,2.13-1.21,3.19-.54,1.33-1.1,2.65-1.67,4-.44,1-.9,2-1.35,3-.16.35-.24.38-.54.23l-5.8-2.94s-.06-.06-.15-.16c.15-.37.3-.77.48-1.17.62-1.38,1.28-2.74,1.86-4.14s1.24-3.08,1.82-4.64c.31-.86.54-1.75.82-2.63.2-.65.45-1.28.64-1.93s.39-1.52.58-2.28c.1-.43.21-.86.31-1.29.24-1.06.49-2.12.7-3.18.14-.73.2-1.48.31-2.22s.27-1.75.4-2.62c0-.1,0-.2,0-.3a67.91,67.91,0,0,0,.3-6.84c0-.4,0-.8,0-1.3l-1.56.69c-1.86.81-3.74,1.59-5.58,2.44s-3.38,1.62-5.06,2.45c-1.39.69-2.8,1.36-4.17,2.11-2.17,1.2-4.34,2.43-6.47,3.71s-4.42,2.69-6.58,4.11c-2.48,1.63-4.94,3.29-7.3,5.1-2,1.54-3.94,3.18-5.83,4.87a2.06,2.06,0,0,0-.75,1.76c0,2.67,0,5.34,0,8V131a5,5,0,0,1-.82.17c-1.86,0-3.72,0-5.59,0-.63,0-.68,0-.68-.7,0-2.86,0-5.71,0-8.56a1.47,1.47,0,0,0-.59-1.23c-1.61-1.37-3.21-2.76-4.84-4.11-.82-.68-1.68-1.32-2.56-1.94-2.07-1.46-4.14-2.93-6.25-4.32-1.93-1.27-3.89-2.48-5.88-3.66-2.37-1.41-4.76-2.81-7.19-4.11-2.68-1.43-5.41-2.76-8.13-4.1-1-.5-2.12-.89-3.17-1.34-1.26-.54-2.5-1.1-3.75-1.65Zm91.54-12.8a5.28,5.28,0,0,0-.69,0c-.85.13-1.69.31-2.55.42s-2,.2-3,.3l-.18,0-3.6.46c-1.07.12-2.14.21-3.2.33s-2.16.31-3.25.41q-2.93.28-5.86.5c-1.39.09-2.78.08-4.17.23-1.69.18-3.39.07-5.09.24-2.15.2-4.32,0-6.47.27-5.08,0-10.15.2-15.23-.14-2.38-.16-4.77,0-7.15-.27-1.43-.14-2.86,0-4.3-.21s-3.14-.09-4.71-.3c-1.4-.18-2.83-.21-4.24-.31l-.3,0c-1.16-.15-2.32-.32-3.49-.44-1.88-.21-3.78-.39-5.67-.58-.66-.07-1.31-.16-2-.24l-.36-.05-2.74-.41-1.25-.19c-.23,0-.47,0-.72,0-.28,1.28-.56,2.52-.83,3.75-.08.38-.15.75-.23,1.13a.5.5,0,0,0,.29.65l.72.27c.93.36,1.86.7,2.77,1.08s1.8.8,2.69,1.2c1.36.61,2.74,1.17,4.08,1.82q3.45,1.71,6.87,3.5,2.46,1.28,4.88,2.64c2.34,1.33,4.67,2.67,6.92,4.15,1.85,1.2,3.75,2.34,5.58,3.58,2,1.4,4.08,2.83,6.06,4.34,1.66,1.27,3.23,2.66,4.84,4,.43.36.43.37.85,0,.81-.68,1.58-1.39,2.41-2,1.76-1.38,3.51-2.76,5.31-4.07s3.84-2.73,5.82-4c2.26-1.45,4.57-2.81,6.88-4.16,2-1.19,4.06-2.36,6.12-3.48s4.3-2.26,6.47-3.34c1.87-.92,3.76-1.83,5.67-2.67,2.22-1,4.48-1.89,6.72-2.83.36-.15.43-.31.33-.72-.15-.58-.29-1.17-.41-1.76C110.25,84.29,110.05,83.28,109.84,82.27Z"/><path class="cls-1" d="M129.61,32.4v7.07c-.69.05-1.39,0-2.09,0h-8.71a3.75,3.75,0,0,0,.29.43l2.72,2.7c.15.15.27.33.44.53l-5.08,4.91c-.4-.38-.76-.71-1.11-1.06q-4.33-4.36-8.68-8.72c-.6-.61-1.21-1.21-1.82-1.82l-.3-.28c-.2-.2-.19-.36,0-.56.64-.63,1.25-1.28,1.88-1.91L113,28q1.88-1.86,3.77-3.7c.43-.42.47-.43.91,0l3.89,3.79c.81.79.85.68,0,1.52L119.08,32c-.07.07-.12.16-.26.33.31,0,.53.06.76.06h10Z"/><path class="cls-1" d="M12.35,48A34.09,34.09,0,0,1,9.84,45.6C9,44.81,8.22,44,7.36,43.15a3.44,3.44,0,0,1,.29-.42c.83-.86,1.67-1.7,2.49-2.56.16-.17.3-.36.54-.66l-2.7,0H.12a57.12,57.12,0,0,1,0-7.05c.22,0,.45,0,.69,0H9.9c.23,0,.46,0,.81,0L8.33,29.91l-.7-.74c-.26-.3-.27-.35,0-.63l2.42-2.46,1.77-1.75c.42-.42.47-.42.92,0,1.21,1.17,2.42,2.34,3.62,3.53L24,35.39c.14.14.3.26.43.39,0,.12,0,.22-.08.27Z"/><path class="cls-1" d="M64.77,69.86a3.49,3.49,0,1,1,0-7,3.49,3.49,0,1,1,0,7Z"/></svg>